<svg width="23" height="21" viewBox="0 0 23 21" fill="none" xmlns="http://www.w3.org/2000/svg">
<path d="M11.5 14.5V19.5M17.5 19.5L13.5486 16.2072C12.8198 15.5998 12.4554 15.2962 12.0487 15.1801C11.69 15.0778 11.31 15.0778 10.9513 15.1801C10.5446 15.2962 10.1802 15.5998 9.45141 16.2072L5.5 19.5M7.5 9.5V10.5M11.5 7.5V10.5M15.5 5.5V10.5M21.5 1.5H1.5M2.5 1.5H20.5V9.7C20.5 11.3802 20.5 12.2202 20.173 12.862C19.8854 13.4265 19.4265 13.8854 18.862 14.173C18.2202 14.5 17.3802 14.5 15.7 14.5H7.3C5.61984 14.5 4.77976 14.5 4.13803 14.173C3.57354 13.8854 3.1146 13.4265 2.82698 12.862C2.5 12.2202 2.5 11.3802 2.5 9.7V1.5Z" stroke="#9E9E9E" stroke-width="2" stroke-linecap="round" stroke-linejoin="round"/>
</svg>
