<svg width="23" height="23" viewBox="0 0 23 23" fill="none" xmlns="http://www.w3.org/2000/svg">
<path d="M4 21.5V16.5M4 6.5V1.5M1.5 4H6.5M1.5 19H6.5M12.5 2.5L10.7658 7.00886C10.4838 7.74209 10.3428 8.10871 10.1235 8.41709C9.92919 8.6904 9.6904 8.92919 9.41709 9.12353C9.10871 9.3428 8.74209 9.48381 8.00886 9.76582L3.5 11.5L8.00886 13.2342C8.74209 13.5162 9.10871 13.6572 9.41709 13.8765C9.6904 14.0708 9.92919 14.3096 10.1235 14.5829C10.3428 14.8913 10.4838 15.2579 10.7658 15.9911L12.5 20.5L14.2342 15.9911C14.5162 15.2579 14.6572 14.8913 14.8765 14.5829C15.0708 14.3096 15.3096 14.0708 15.5829 13.8765C15.8913 13.6572 16.2579 13.5162 16.9911 13.2342L21.5 11.5L16.9911 9.76582C16.2579 9.48381 15.8913 9.3428 15.5829 9.12353C15.3096 8.92919 15.0708 8.6904 14.8765 8.41709C14.6572 8.10871 14.5162 7.74209 14.2342 7.00886L12.5 2.5Z" stroke="#9E9E9E" stroke-width="2" stroke-linecap="round" stroke-linejoin="round"/>
</svg>
